# xmcd CD database file
#
# Track frame offsets:
#	150
#	20520
#	36965
#	58190
#	70490
#	90465
#	109140
#	132390
#	149192
#	165107
#	179532
#	195812
#
# Disc length: 2902 seconds
#
# Revision: 8
# Processed by: cddbd v1.5.2PL0 Copyright (c) Steve Scherf et al.
# Submitted via: CDex 1.70beta3
#
DISCID=aa0b540c
DTITLE=スピッツ - スピッツ
DYEAR=1991
DGENRE=New Age
TTITLE0=ニノウデの世界
TTITLE1=海とピンク
TTITLE2=ビー玉
TTITLE3=五千光年の夢
TTITLE4=月に帰る
TTITLE5=テレビ
TTITLE6=タンポポ
TTITLE7=死神の岬へ
TTITLE8=トンビ飛べなかった
TTITLE9=夏の魔物
TTITLE10=うめぼし
TTITLE11=ヒバリのこころ
EXTD=YEAR: 1991
EXTT0=
EXTT1=
EXTT2=
EXTT3=
EXTT4=
EXTT5=
EXTT6=
EXTT7=
EXTT8=
EXTT9=
EXTT10=
EXTT11=
PLAYORDER=
